<?xml version="1.0" encoding="UTF-8"?>
<svg xmlns="http://www.w3.org/2000/svg" xmlns:xlink="http://www.w3.org/1999/xlink" width="200px" height="200px" viewBox="0 0 200 200" version="1.1">
<g id="surface1">
<path style=" stroke:none;fill-rule:nonzero;fill:rgb(86.27451%,28.627451%,18.431373%);fill-opacity:1;" d="M 39.398438 86.601562 L 44.699219 86.601562 L 44.898438 86.699219 L 44.898438 96.199219 L 47.101562 96.101562 L 47.199219 86.699219 L 47.300781 86.601562 L 52.699219 86.601562 L 52.800781 86.898438 L 52.800781 109.898438 L 52.699219 113.398438 L 51.699219 113.5 L 48 113.5 L 47.300781 113.398438 L 47.199219 113.101562 L 47.101562 101.398438 L 44.898438 101.5 L 44.898438 113.300781 L 44.800781 113.398438 L 41.101562 113.5 L 39.601562 113.5 L 39.398438 113.398438 L 39.300781 112.800781 L 39.300781 86.699219 Z M 39.398438 86.601562 "/>
<path style=" stroke:none;fill-rule:nonzero;fill:rgb(86.666667%,29.019608%,18.823529%);fill-opacity:1;" d="M 59.5 86.5 L 63.199219 86.5 L 64.601562 86.800781 L 65.800781 87.5 L 66.800781 88.5 L 67.601562 89.898438 L 68.101562 91.5 L 68.199219 93.199219 L 68.199219 105.699219 L 68.101562 107.601562 L 67.800781 109.199219 L 67.300781 110.5 L 66.699219 111.5 L 66 112.300781 L 65 113 L 63.800781 113.398438 L 61.800781 113.601562 L 60.601562 113.601562 L 59 113.398438 L 57.898438 113 L 56.898438 112.300781 L 56.199219 111.601562 L 55.5 110.398438 L 55 109 L 54.800781 108.101562 L 54.699219 106.800781 L 54.601562 102.800781 L 54.601562 95.300781 L 54.699219 92.101562 L 55 90.601562 L 55.800781 89 L 56.199219 88.398438 L 56.898438 87.601562 L 58 86.898438 L 58.898438 86.601562 Z M 61.300781 91.300781 L 60.699219 91.699219 L 60.300781 92.300781 L 60.199219 96.898438 L 60.199219 107 L 60.398438 108.199219 L 60.699219 108.699219 L 61.101562 108.898438 L 61.699219 108.898438 L 62.199219 108.601562 L 62.5 107.898438 L 62.601562 107.398438 L 62.601562 92.699219 L 62.199219 91.601562 L 61.699219 91.300781 Z M 61.300781 91.300781 "/>
<path style=" stroke:none;fill-rule:nonzero;fill:rgb(86.666667%,29.019608%,18.823529%);fill-opacity:1;" d="M 116.699219 86.5 L 120.398438 86.5 L 121.800781 86.800781 L 123 87.5 L 123.699219 88.101562 L 124.601562 89.5 L 125.101562 90.800781 L 125.300781 92.199219 L 125.398438 96.101562 L 125.398438 99.398438 L 125.300781 106.800781 L 125.101562 108.800781 L 124.699219 110.101562 L 123.898438 111.5 L 123.300781 112.199219 L 122.5 112.800781 L 121.699219 113.199219 L 120.398438 113.5 L 117.898438 113.601562 L 116.101562 113.398438 L 114.898438 112.898438 L 114 112.199219 L 113.199219 111.300781 L 112.601562 110.101562 L 112.101562 108.5 L 111.898438 106.800781 L 111.898438 92.398438 L 112.101562 91.101562 L 112.699219 89.5 L 113.398438 88.398438 L 114.398438 87.398438 L 115.398438 86.800781 Z M 118.5 91.300781 L 118 91.601562 L 117.601562 92.101562 L 117.5 92.300781 L 117.5 107.800781 L 117.800781 108.601562 L 118.398438 108.898438 L 119 108.898438 L 119.601562 108.199219 L 119.800781 107.398438 L 119.800781 92.601562 L 119.398438 91.699219 L 118.898438 91.300781 Z M 118.5 91.300781 "/>
<path style=" stroke:none;fill-rule:nonzero;fill:rgb(86.27451%,28.627451%,18.431373%);fill-opacity:1;" d="M 87.101562 86.5 L 90.800781 86.5 L 91.898438 86.699219 L 93.101562 87.300781 L 94.101562 88.199219 L 94.800781 89.199219 L 95.300781 90.398438 L 95.601562 91.800781 L 95.699219 92.601562 L 95.699219 106.699219 L 95.5 108.398438 L 95.101562 109.898438 L 94.699219 110.800781 L 94 111.800781 L 93.199219 112.601562 L 92 113.199219 L 90.800781 113.5 L 88.199219 113.601562 L 86.898438 113.5 L 85.5 113 L 84.398438 112.199219 L 83.601562 111.300781 L 82.800781 109.699219 L 82.5 108.5 L 82.398438 107.601562 L 82.398438 91.601562 L 82.699219 90.300781 L 83.5 88.699219 L 84.5 87.601562 L 85.601562 86.898438 L 86.398438 86.601562 Z M 88.800781 91.300781 L 88.101562 91.898438 L 87.898438 92.300781 L 87.800781 93 L 87.800781 107 L 88 108.199219 L 88.300781 108.699219 L 88.699219 108.898438 L 89.5 108.800781 L 90 108.199219 L 90.199219 107.398438 L 90.199219 92.5 L 89.800781 91.699219 L 89.5 91.398438 Z M 88.800781 91.300781 "/>
<path style=" stroke:none;fill-rule:nonzero;fill:rgb(86.27451%,28.627451%,18.431373%);fill-opacity:1;" d="M 151.199219 86.601562 L 160.199219 86.601562 L 160.5 86.800781 L 160.800781 90.101562 L 161.300781 96 L 162 103.300781 L 162.800781 112.199219 L 162.800781 113.398438 L 162.699219 113.5 L 157.898438 113.5 L 157.699219 113.300781 L 157.300781 109.398438 L 156.800781 109.300781 L 154.199219 109.199219 L 154.199219 110.5 L 154 112.898438 L 153.898438 113.398438 L 153.699219 113.5 L 150.800781 113.5 L 148.699219 113.398438 L 148.699219 111.699219 L 149.398438 104.300781 L 149.898438 98.5 L 150.300781 94.898438 L 150.898438 88.199219 L 151.101562 86.699219 Z M 155.5 91.601562 L 154.800781 101.5 L 154.601562 103.800781 L 154.601562 104.898438 L 156.800781 104.898438 L 156.898438 104.800781 L 156.699219 101.898438 L 156 93.699219 L 155.800781 91.601562 Z M 155.5 91.601562 "/>
<path style=" stroke:none;fill-rule:nonzero;fill:rgb(86.27451%,28.627451%,18.431373%);fill-opacity:1;" d="M 132 86.5 L 135.398438 86.5 L 136.800781 86.800781 L 138 87.398438 L 139 88.300781 L 139.699219 89.199219 L 140.300781 90.800781 L 140.5 91.800781 L 140.601562 94.199219 L 140.601562 96.101562 L 140.5 97.398438 L 138.300781 97.5 L 135.898438 97.5 L 135.101562 97.398438 L 135 97.300781 L 134.898438 92.601562 L 134.601562 91.601562 L 134 91.398438 L 133.300781 91.5 L 132.898438 92 L 132.800781 92.199219 L 132.699219 98.5 L 132.699219 102.5 L 132.800781 107.898438 L 133.101562 108.601562 L 133.5 108.800781 L 134.199219 108.800781 L 134.699219 108.300781 L 134.898438 107.5 L 135 102.101562 L 135.101562 102 L 140.5 102 L 140.601562 102.101562 L 140.601562 106.800781 L 140.398438 108.898438 L 139.898438 110.601562 L 139.300781 111.601562 L 138.800781 112.101562 L 138.101562 112.699219 L 136.898438 113.199219 L 135.601562 113.5 L 133.101562 113.601562 L 131.300781 113.398438 L 129.699219 112.601562 L 128.699219 111.699219 L 128 110.699219 L 127.398438 109.398438 L 127.199219 108.300781 L 127.101562 103.5 L 127.101562 94.398438 L 127.199219 92.300781 L 127.5 90.898438 L 128.199219 89.199219 L 128.800781 88.300781 L 129.398438 87.601562 L 130.5 86.898438 L 131.300781 86.601562 Z M 132 86.5 "/>
<path style=" stroke:none;fill-rule:nonzero;fill:rgb(86.27451%,28.627451%,18.431373%);fill-opacity:1;" d="M 101.800781 86.5 L 105.398438 86.5 L 106.800781 86.800781 L 108 87.5 L 108.800781 88.300781 L 109.398438 89.300781 L 109.800781 90.300781 L 110.199219 92 L 110.398438 94 L 110.199219 94.398438 L 104.898438 94.398438 L 104.800781 94.300781 L 104.699219 92.199219 L 104.300781 91.601562 L 103.898438 91.398438 L 103.101562 91.5 L 102.699219 91.898438 L 102.601562 92.101562 L 102.601562 93.199219 L 103 94.199219 L 103.898438 95.199219 L 104.601562 96 L 104.800781 96.101562 L 104.800781 96.300781 L 105.199219 96.5 L 108.199219 99.5 L 109.199219 100.800781 L 110 102.398438 L 110.398438 103.800781 L 110.5 104.601562 L 110.5 107 L 110.199219 108.898438 L 109.5 111 L 108.601562 112.300781 L 107.800781 112.898438 L 107 113.300781 L 106 113.5 L 103.101562 113.601562 L 101.300781 113.398438 L 99.800781 112.800781 L 98.800781 112 L 98.199219 111 L 97.601562 109.699219 L 97.199219 107.699219 L 97.101562 105.300781 L 97.199219 103.5 L 99.800781 103.398438 L 102.5 103.398438 L 102.601562 103.5 L 102.699219 107.398438 L 103 108.398438 L 103.300781 108.699219 L 103.601562 108.800781 L 104.300781 108.800781 L 104.800781 108.300781 L 104.898438 108 L 104.898438 105.398438 L 104.601562 104.398438 L 103.699219 103 L 101.5 100.800781 L 100.699219 100.101562 L 99 98.398438 L 98.300781 97.398438 L 97.5 95.800781 L 97.199219 94.699219 L 97.101562 93.800781 L 97.101562 92.601562 L 97.300781 91.199219 L 97.800781 89.699219 L 98.398438 88.601562 L 99.300781 87.601562 L 100.101562 87 L 101.101562 86.601562 Z M 101.800781 86.5 "/>
<path style=" stroke:none;fill-rule:nonzero;fill:rgb(86.27451%,28.627451%,18.431373%);fill-opacity:1;" d="M 24.800781 86.601562 L 32.601562 86.601562 L 34 86.800781 L 35.300781 87.5 L 36.300781 88.5 L 37.101562 89.898438 L 37.5 91.199219 L 37.800781 93.699219 L 37.800781 96 L 37.398438 98.898438 L 37 100.101562 L 36.5 100.898438 L 35.601562 101.898438 L 34.699219 102.5 L 33.5 102.800781 L 32.699219 102.898438 L 30 103 L 30 113.398438 L 29.5 113.5 L 24.898438 113.5 L 24.800781 113.398438 L 24.699219 98.398438 L 24.699219 86.800781 Z M 30.199219 91.5 L 30 92.199219 L 30 97.898438 L 30.101562 98 L 31.199219 97.898438 L 31.800781 97.601562 L 32.199219 96.800781 L 32.398438 95.398438 L 32.300781 93.101562 L 31.898438 92.101562 L 31.5 91.699219 Z M 30.199219 91.5 "/>
<path style=" stroke:none;fill-rule:nonzero;fill:rgb(86.666667%,29.019608%,18.823529%);fill-opacity:1;" d="M 69.398438 86.601562 L 81.101562 86.601562 L 81.199219 86.699219 L 81.199219 91.800781 L 81.101562 91.898438 L 78 91.898438 L 78 113.300781 L 77.300781 113.5 L 72.800781 113.5 L 72.601562 113.398438 L 72.5 112.101562 L 72.398438 92 L 69.800781 91.898438 L 69.300781 91.800781 L 69.199219 91.199219 L 69.199219 86.898438 Z M 69.398438 86.601562 "/>
<path style=" stroke:none;fill-rule:nonzero;fill:rgb(86.666667%,29.019608%,18.823529%);fill-opacity:1;" d="M 164.601562 86.601562 L 169.898438 86.601562 L 170 86.699219 L 170 92 L 169.898438 108.898438 L 175.101562 109 L 175.199219 109.398438 L 175.101562 113.398438 L 175 113.5 L 164.601562 113.5 L 164.5 113.398438 L 164.398438 110 L 164.398438 86.699219 Z M 164.601562 86.601562 "/>
<path style=" stroke:none;fill-rule:nonzero;fill:rgb(86.666667%,29.019608%,18.823529%);fill-opacity:1;" d="M 142 86.601562 L 147.101562 86.601562 L 147.300781 86.699219 L 147.300781 111.898438 L 147.199219 113.398438 L 143.800781 113.5 L 142 113.398438 L 141.898438 113.199219 L 141.898438 86.699219 Z M 142 86.601562 "/>
<path style=" stroke:none;fill-rule:nonzero;fill:rgb(78.039216%,10.588235%,10.588235%);fill-opacity:1;" d="M 132 86.5 L 135.398438 86.5 L 136.800781 86.800781 L 138 87.398438 L 139 88.300781 L 139.699219 89.199219 L 140.300781 90.800781 L 140.5 91.800781 L 140.601562 94.199219 L 140.601562 96.101562 L 140.5 97.398438 L 138.300781 97.5 L 135.898438 97.5 L 135.101562 97.398438 L 135 97.300781 L 134.898438 92.601562 L 134.601562 91.601562 L 134 91.398438 L 133.300781 91.5 L 132.800781 91.898438 L 132.601562 92.199219 L 132.398438 92.199219 L 132.5 92.5 L 132.300781 92.800781 L 132.199219 93.398438 L 132.300781 93.300781 L 132.601562 93.199219 L 132.601562 94 L 132.398438 94 L 132.398438 95.101562 L 132.199219 97.101562 L 132 96.898438 L 131.898438 96.5 L 131.699219 97.101562 L 131.398438 97.101562 L 131.300781 97.300781 L 131 97.199219 L 130.898438 97 L 130 97 L 129.5 96.699219 L 128.898438 96.601562 L 128.800781 96.199219 L 128.5 96.101562 L 128.101562 95.699219 L 128.101562 94.398438 L 127.898438 93.601562 L 127.800781 92.300781 L 127.699219 91.601562 L 127.601562 90.601562 L 128.398438 88.800781 L 129.300781 87.699219 L 130.300781 87 L 131.300781 86.601562 Z M 132 86.5 "/>
<path style=" stroke:none;fill-rule:nonzero;fill:rgb(78.039216%,10.588235%,10.588235%);fill-opacity:1;" d="M 24.800781 86.601562 L 32.601562 86.601562 L 34 86.800781 L 35.300781 87.5 L 36.300781 88.5 L 37.101562 89.898438 L 37.5 91.199219 L 37.800781 93.699219 L 37.800781 96 L 37.601562 96.398438 L 36.699219 96.800781 L 36.601562 97 L 36.199219 97 L 36.101562 96.800781 L 34.898438 96.699219 L 34.699219 96.699219 L 34.699219 96.898438 L 34.300781 96.800781 L 33.601562 96.601562 L 33.398438 96.5 L 33.199219 96.101562 L 32.898438 94.601562 L 32.398438 94.699219 L 32.300781 94.601562 L 32.199219 93.101562 L 31.800781 92.101562 L 31.5 91.800781 L 30.199219 91.601562 L 30.101562 92.199219 L 30 96.800781 L 29.5 96.699219 L 29.5 96.898438 L 28.699219 96.898438 L 28.5 97.101562 L 28.101562 96.800781 L 28.101562 96.601562 L 27.699219 96.699219 L 27.398438 96 L 27 95.800781 L 26.601562 95.800781 L 26 95.601562 L 25.699219 95.601562 L 25.300781 94.601562 L 25.300781 94.398438 L 24.800781 94.5 Z M 24.800781 86.601562 "/>
<path style=" stroke:none;fill-rule:nonzero;fill:rgb(78.039216%,10.588235%,10.588235%);fill-opacity:1;" d="M 87.101562 86.5 L 90.800781 86.5 L 91.898438 86.699219 L 93.101562 87.300781 L 94.101562 88.199219 L 94.800781 89.199219 L 95.300781 90.398438 L 95.601562 91.800781 L 95.699219 92.601562 L 95.699219 96.5 L 95.601562 99.601562 L 95.300781 99.601562 L 95.199219 99.398438 L 95 96.601562 L 94.601562 97.101562 L 94.300781 97.199219 L 94.300781 96.898438 L 93.800781 97.101562 L 93.601562 97 L 93.5 97.199219 L 93.5 96.898438 L 92.699219 97.101562 L 91.398438 96.898438 L 91.101562 96.5 L 91 96.101562 L 90.800781 95.898438 L 90.601562 95 L 90.5 94.898438 L 90.300781 95.101562 L 90.199219 92.699219 L 89.699219 91.699219 L 89.199219 91.398438 L 88.601562 91.5 L 88.101562 92.101562 L 87.898438 93 L 87.800781 98 L 87.398438 99 L 87.300781 99 L 87.101562 97.398438 L 87.101562 96.601562 L 87 96.5 L 86.898438 96.699219 L 86.699219 96.699219 L 86.5 97.101562 L 86.300781 97 L 86.199219 97.199219 L 85.898438 96.898438 L 85.898438 96.699219 L 85.398438 96.898438 L 85.101562 96.898438 L 84.898438 96.5 L 84.5 96.398438 L 83.898438 95.601562 L 83.699219 95.398438 L 83.699219 95.101562 L 83.5 94.898438 L 83.300781 94.101562 L 83.300781 93.699219 L 83.101562 93.699219 L 82.800781 92.699219 L 82.601562 92 L 82.5 91.898438 L 82.5 91 L 83 89.601562 L 83.601562 88.601562 L 84.5 87.601562 L 85.601562 86.898438 L 86.398438 86.601562 Z M 87.101562 86.5 "/>
<path style=" stroke:none;fill-rule:nonzero;fill:rgb(78.039216%,10.588235%,10.588235%);fill-opacity:1;" d="M 59.5 86.5 L 63.199219 86.5 L 64.601562 86.800781 L 65.800781 87.5 L 66.800781 88.5 L 67.601562 89.898438 L 68.101562 91.5 L 68.101562 94.800781 L 67.800781 95.199219 L 67.699219 95.699219 L 67.5 95.699219 L 67.398438 96.300781 L 67.199219 96.800781 L 66.898438 96.699219 L 66.898438 96.898438 L 66.5 97.101562 L 66 97 L 65.800781 96.800781 L 65.300781 96.800781 L 64.800781 97 L 64.398438 96.398438 L 63.800781 96.199219 L 63.800781 95.898438 L 63.5 95.800781 L 63.199219 95.199219 L 63.101562 93.398438 L 62.898438 92.898438 L 62.601562 92.898438 L 62.101562 91.601562 L 61.699219 91.398438 L 61.101562 91.5 L 60.601562 91.898438 L 60.300781 92.398438 L 60.199219 94.5 L 60.101562 95.199219 L 59.898438 95.800781 L 59.699219 95.800781 L 59.601562 96.199219 L 59.398438 96.5 L 59.101562 96.699219 L 58.898438 97 L 57.898438 97.199219 L 57.5 97.101562 L 57.101562 97.199219 L 56.601562 97.101562 L 56.601562 96.898438 L 55.800781 96.800781 L 55.699219 96.398438 L 55.5 96.398438 L 55.5 96.101562 L 55.300781 96 L 55.199219 94.199219 L 55 93.5 L 55 93.101562 L 54.699219 93.101562 L 54.699219 92.101562 L 55 90.601562 L 55.800781 89 L 56.199219 88.398438 L 56.898438 87.601562 L 58 86.898438 L 58.898438 86.601562 Z M 59.5 86.5 "/>
<path style=" stroke:none;fill-rule:nonzero;fill:rgb(78.039216%,10.588235%,10.588235%);fill-opacity:1;" d="M 116.699219 86.5 L 120.398438 86.5 L 121.800781 86.800781 L 123 87.5 L 123.699219 88.101562 L 124.601562 89.5 L 125.101562 90.800781 L 125.199219 91.398438 L 125.199219 93.800781 L 125 94.5 L 124.398438 96 L 124.101562 96.601562 L 123 96.699219 L 122.300781 97 L 122 97 L 122 96.800781 L 120.898438 96.898438 L 120.601562 96.5 L 120.5 95.101562 L 120.300781 94.101562 L 120.101562 94 L 120.101562 93.199219 L 119.898438 93.101562 L 119.398438 91.800781 L 118.898438 91.398438 L 118.199219 91.5 L 117.699219 92.101562 L 117.398438 93.101562 L 117.300781 94.101562 L 117.199219 94.300781 L 117.300781 95 L 117 96.5 L 117.101562 96.898438 L 116.898438 96.898438 L 116.699219 96.300781 L 116.699219 95.199219 L 116.199219 96.199219 L 116 96.101562 L 115.398438 96.101562 L 114.898438 96.199219 L 113.398438 95.898438 L 113.199219 95.898438 L 113 95.199219 L 112.898438 94.601562 L 112.5 94.199219 L 112.398438 93.898438 L 112.199219 93.898438 L 112 93.699219 L 112 91.5 L 112.601562 89.699219 L 113.300781 88.5 L 114.398438 87.398438 L 115.398438 86.800781 Z M 116.699219 86.5 "/>
<path style=" stroke:none;fill-rule:nonzero;fill:rgb(78.039216%,10.588235%,10.588235%);fill-opacity:1;" d="M 101.800781 86.5 L 105.398438 86.5 L 106.800781 86.800781 L 108 87.5 L 108.800781 88.300781 L 109.398438 89.300781 L 109.800781 90.300781 L 110.199219 92 L 110.398438 94 L 110.199219 94.398438 L 104.898438 94.398438 L 104.800781 94.300781 L 104.699219 92.199219 L 104.300781 91.601562 L 103.898438 91.398438 L 103.101562 91.5 L 102.699219 91.898438 L 102.601562 92.101562 L 102.601562 93.199219 L 102.699219 93.699219 L 102.5 94.101562 L 102.300781 94.101562 L 102.699219 94.800781 L 103.101562 95.199219 L 103.199219 95.699219 L 103.101562 96.101562 L 102.601562 96.300781 L 102 96.5 L 101.398438 96.601562 L 100.699219 96.398438 L 100.398438 96.199219 L 99.898438 96.199219 L 99.601562 95.898438 L 99.5 95.398438 L 99 95.199219 L 98.800781 94.800781 L 98.300781 94.800781 L 98.199219 94.601562 L 97.699219 94.601562 L 97.601562 94.199219 L 97.398438 93 L 97.199219 92.601562 L 97.199219 91.699219 L 97.601562 90.199219 L 98.398438 88.601562 L 99.300781 87.601562 L 100.101562 87 L 101.101562 86.601562 Z M 101.800781 86.5 "/>
<path style=" stroke:none;fill-rule:nonzero;fill:rgb(78.039216%,10.588235%,10.588235%);fill-opacity:1;" d="M 151.199219 86.601562 L 160.199219 86.601562 L 160.5 86.800781 L 160.800781 90.101562 L 161 92.601562 L 161 95 L 160.800781 95.5 L 160.699219 96.199219 L 160.5 96.199219 L 160.398438 96.699219 L 159.800781 97.101562 L 159.398438 97 L 159.398438 97.199219 L 158.601562 97.300781 L 158.398438 97.398438 L 157.898438 97.199219 L 157.800781 96.601562 L 157.5 95.601562 L 157.199219 94.898438 L 156.699219 94.800781 L 156.898438 95.101562 L 157 96.199219 L 156.800781 96.199219 L 156.601562 95.601562 L 156.5 94.601562 L 156.398438 94.300781 L 156.601562 94.300781 L 156.398438 93.601562 L 156.199219 93.101562 L 156 93.199219 L 155.898438 92.398438 L 155.800781 92.300781 L 155.800781 91.601562 L 155.5 91.601562 L 155.5 92.898438 L 155.199219 94 L 154.898438 94.199219 L 154.601562 95 L 154.398438 95.101562 L 154.300781 95.601562 L 154.199219 96 L 154.101562 96.199219 L 153.699219 96.101562 L 153.101562 96.199219 L 153.101562 96.398438 L 151.800781 96.199219 L 151.300781 95.898438 L 151.101562 95.601562 L 151.199219 94.800781 L 151.199219 94.5 L 151.101562 93.800781 L 150.898438 92.5 L 150.898438 92 L 151.101562 92 L 151.101562 91.398438 L 150.898438 91.398438 L 150.800781 90.898438 L 150.800781 89.101562 L 151.101562 86.699219 Z M 151.199219 86.601562 "/>
<path style=" stroke:none;fill-rule:nonzero;fill:rgb(78.039216%,10.588235%,10.588235%);fill-opacity:1;" d="M 69.398438 86.601562 L 81.101562 86.601562 L 81.199219 86.699219 L 81.199219 91.800781 L 81.101562 91.898438 L 78 91.898438 L 78 96.300781 L 77.898438 97.300781 L 77.699219 97.300781 L 77.699219 97.101562 L 77.5 97.101562 L 77.5 95.800781 L 77.101562 96.601562 L 76.601562 96.800781 L 76.199219 96.398438 L 75.898438 96.398438 L 75.898438 96.601562 L 75.199219 96.5 L 75.199219 96.300781 L 74.601562 96.300781 L 74.601562 96.101562 L 73.800781 96 L 73.5 95.5 L 73.398438 94.699219 L 73.199219 94.601562 L 73 93.398438 L 72.800781 93.398438 L 72.699219 93.101562 L 72.800781 92.699219 L 72.5 92.699219 L 72.398438 92 L 69.800781 91.898438 L 69.300781 91.800781 L 69.199219 91.199219 L 69.199219 86.898438 Z M 69.398438 86.601562 "/>
<path style=" stroke:none;fill-rule:nonzero;fill:rgb(78.039216%,10.588235%,10.588235%);fill-opacity:1;" d="M 142 86.601562 L 147.101562 86.601562 L 147.300781 86.699219 L 147.300781 92.101562 L 147 93.300781 L 147 94.101562 L 146.898438 94.699219 L 146.699219 96.101562 L 146.601562 96.601562 L 146.300781 96.601562 L 146.199219 97.101562 L 144 97.101562 L 143 96.300781 L 142.601562 95.898438 L 142.398438 94.199219 L 142.199219 93.800781 L 141.898438 93.398438 L 141.898438 86.699219 Z M 142 86.601562 "/>
<path style=" stroke:none;fill-rule:nonzero;fill:rgb(78.039216%,10.588235%,10.588235%);fill-opacity:1;" d="M 47.300781 86.601562 L 52.699219 86.601562 L 52.699219 87.601562 L 52.5 91 L 52.398438 93.898438 L 52.300781 94.898438 L 52.199219 95.300781 L 52.101562 95.898438 L 51.898438 95.898438 L 52 96.300781 L 51.398438 96.5 L 51.199219 96.398438 L 50.699219 96.800781 L 50.699219 97.101562 L 50.398438 97 L 50.398438 96.699219 L 49.800781 96.898438 L 48.898438 96.898438 L 48.398438 96.699219 L 48 96.800781 L 48 96.601562 L 47.800781 96.601562 L 47.601562 95.601562 L 47.601562 94.898438 L 47.5 94.398438 L 47.398438 91.898438 L 47.398438 89.699219 L 47.300781 91 L 47.199219 91 L 47.199219 86.699219 Z M 47.300781 86.601562 "/>
<path style=" stroke:none;fill-rule:nonzero;fill:rgb(78.039216%,10.588235%,10.588235%);fill-opacity:1;" d="M 164.601562 86.601562 L 169.898438 86.601562 L 170 86.699219 L 170 92 L 169.898438 94.601562 L 169.699219 95.300781 L 169.601562 96 L 169.398438 96 L 169.398438 96.398438 L 169.199219 96.398438 L 169.101562 96.898438 L 167.898438 96.699219 L 167 96.601562 L 166.699219 96.398438 L 166.699219 96.199219 L 166.199219 96.101562 L 165.898438 95.699219 L 165.898438 95.5 L 165.699219 95.5 L 165.101562 94.101562 L 164.898438 93 L 164.5 92.601562 L 164.398438 89.300781 L 164.398438 86.699219 Z M 164.601562 86.601562 "/>
<path style=" stroke:none;fill-rule:nonzero;fill:rgb(78.039216%,10.588235%,10.588235%);fill-opacity:1;" d="M 39.398438 86.601562 L 44.699219 86.601562 L 44.800781 86.699219 L 44.800781 91.398438 L 44.699219 91.800781 L 44.601562 92.300781 L 44.601562 93.199219 L 44.5 94.199219 L 44.300781 95.699219 L 44 96.199219 L 43.601562 96.300781 L 43.601562 96.5 L 42.101562 96.5 L 42 96.601562 L 41.5 96.601562 L 41.5 96.398438 L 41.101562 96.5 L 40.601562 96 L 40.5 95.800781 L 40 95.699219 L 39.601562 94.601562 L 39.5 93 L 39.398438 92.5 L 39.300781 91.300781 L 39.300781 86.699219 Z M 39.398438 86.601562 "/>
<path style=" stroke:none;fill-rule:nonzero;fill:rgb(86.27451%,28.627451%,18.431373%);fill-opacity:1;" d="M 135 93.5 L 135.5 93.699219 L 135.5 94.300781 L 135.398438 94.601562 L 135.800781 95.5 L 136.199219 95.898438 L 136.300781 96.398438 L 137.101562 96.5 L 137.699219 96.398438 L 138.101562 96.699219 L 139.398438 96.699219 L 139.601562 96.300781 L 139.699219 96.601562 L 140.101562 96.398438 L 140 95.699219 L 140.199219 95.699219 L 140.300781 95.398438 L 140.5 95.398438 L 140.398438 95 L 140.5 94.199219 L 140.601562 94.199219 L 140.601562 96.101562 L 140.5 97.398438 L 138.300781 97.5 L 135.898438 97.5 L 135.101562 97.398438 L 135 97.300781 Z M 135 93.5 "/>
<path style=" stroke:none;fill-rule:nonzero;fill:rgb(86.666667%,29.019608%,18.823529%);fill-opacity:1;" d="M 104.800781 92.300781 L 105.101562 92.398438 L 105 92.5 L 105.199219 92.601562 L 105.398438 93.398438 L 105.601562 93.898438 L 106.398438 94 L 106.601562 94.101562 L 109.398438 94.101562 L 109.800781 94 L 109.898438 93.699219 L 110.300781 93.800781 L 110.398438 94.199219 L 110.199219 94.398438 L 104.898438 94.398438 L 104.800781 94.300781 Z M 104.800781 92.300781 "/>
<path style=" stroke:none;fill-rule:nonzero;fill:rgb(86.666667%,29.019608%,18.823529%);fill-opacity:1;" d="M 160.699219 90.101562 L 160.800781 90.101562 L 161 92.601562 L 161 93.601562 L 160.800781 93.699219 L 160.800781 93 L 160.601562 92.300781 L 160.601562 90.898438 Z M 160.699219 90.101562 "/>
<path style=" stroke:none;fill-rule:nonzero;fill:rgb(86.666667%,29.019608%,18.823529%);fill-opacity:1;" d="M 132.800781 91.800781 L 132.898438 92 L 132.800781 92.199219 L 132.699219 93.898438 L 132.5 93.800781 L 132.5 93.300781 L 132.300781 93.300781 L 132.300781 93.5 L 132.101562 93.398438 L 132.199219 92.699219 L 132.398438 92.398438 L 132.398438 92.199219 Z M 132.800781 91.800781 "/>
<path style=" stroke:none;fill-rule:nonzero;fill:rgb(86.666667%,29.019608%,18.823529%);fill-opacity:1;" d="M 32.300781 93.5 L 32.601562 93.601562 L 32.601562 94 L 32.800781 94.101562 L 32.800781 94.5 L 32.300781 94.601562 Z M 32.300781 93.5 "/>
</g>
</svg>
